<?xml version="1.0" encoding="UTF-8" standalone="no"?>
<svg
   xmlns:dc="http://purl.org/dc/elements/1.1/"
   xmlns:cc="http://creativecommons.org/ns#"
   xmlns:rdf="http://www.w3.org/1999/02/22-rdf-syntax-ns#"
   xmlns:svg="http://www.w3.org/2000/svg"
   xmlns="http://www.w3.org/2000/svg"
   xmlns:sodipodi="http://sodipodi.sourceforge.net/DTD/sodipodi-0.dtd"
   xmlns:inkscape="http://www.inkscape.org/namespaces/inkscape"
   inkscape:version="1.1-dev (ddb55ca, 2020-02-02)"
   sodipodi:docname="md-paper.svg"
   id="svg14"
   version="1.1"
   viewBox="0 0 512 512">
  <metadata
     id="metadata20">
    <rdf:RDF>
      <cc:Work
         rdf:about="">
        <dc:format>image/svg+xml</dc:format>
        <dc:type
           rdf:resource="http://purl.org/dc/dcmitype/StillImage" />
      </cc:Work>
    </rdf:RDF>
  </metadata>
  <defs
     id="defs18" />
  <sodipodi:namedview
     inkscape:current-layer="svg14"
     inkscape:window-maximized="0"
     inkscape:window-y="23"
     inkscape:window-x="128"
     inkscape:cy="210.28571"
     inkscape:cx="273.52381"
     inkscape:zoom="1.3125"
     showgrid="false"
     id="namedview16"
     inkscape:window-height="821"
     inkscape:window-width="1231"
     inkscape:pageshadow="2"
     inkscape:pageopacity="0"
     guidetolerance="10"
     gridtolerance="10"
     objecttolerance="10"
     borderopacity="1"
     bordercolor="#666666"
     pagecolor="#ffffff" />
  <path
     style="fill:#000000"
     id="path10"
     d="M464 64H192c-8.8 0-16 7.7-16 16.5V112H74c-23.1 0-42 18.9-42 42v207.5c0 47.6 39 86.5 86 86.5h279.7c45.1 0 82.3-36.9 82.3-82V80c0-8.8-7.2-16-16-16zm-288 80v192h-42V163.2c0-6.8-.8-13.3-3.3-19.2H176zm-17 255.4C148 410 133.2 416 118.5 416c-14.5 0-28.1-5.7-38.5-16-10.3-10.3-16-24-16-38.5V163.2c0-10.6 8.4-19.2 19-19.2s19 8.6 19 19.2V352c0 8.8 7.2 16 16 16h57.5c-1.5 11.6-7.2 22.6-16.5 31.4zM448 366c0 13.3-5.4 25.8-14.9 35.3-9.5 9.5-22.2 14.7-35.4 14.7H187.3c12.8-14.9 20.7-33.9 20.7-54.5V97h240v269z" />
  <path
     style="fill:#000080"
     id="path12"
     d="M248 136h160v56H248zM248 224h160v32H248zM248 288h160v32H248zM408 352H248s0 32-8 32h148.7c19.3 0 19.3-21 19.3-32z" />
</svg>
